<svg width="24" height="30" viewBox="0 0 24 30" fill="none" xmlns="http://www.w3.org/2000/svg">
<path id="Vector 7" d="M13.5 1.99996C13.5 1.17153 12.8284 0.499976 12 0.5C11.1715 0.500024 10.5 1.17162 10.5 2.00004L13.5 1.99996ZM10.9401 29.0607C11.5259 29.6465 12.4757 29.6464 13.0614 29.0606L22.6071 19.5144C23.1929 18.9286 23.1929 17.9789 22.607 17.3931C22.0212 16.8073 21.0715 16.8073 20.4857 17.3932L12.0007 25.8787L3.51517 17.3936C2.92936 16.8079 1.97962 16.8079 1.39385 17.3937C0.808076 17.9795 0.808104 18.9293 1.39391 19.515L10.9401 29.0607ZM10.5 2.00004L10.5008 28L13.5008 28L13.5 1.99996L10.5 2.00004Z" fill="#909193"/>
</svg>
