<svg width="29" height="25" viewBox="0 0 29 25" fill="none" xmlns="http://www.w3.org/2000/svg">
<path id="Vector 7" d="M2.37644 0.548005C1.57453 0.340101 0.755908 0.821642 0.548005 1.62356C0.340101 2.42547 0.821642 3.24409 1.62356 3.452L2.37644 0.548005ZM15.5 5.5L16.9772 5.23932C16.8751 4.66098 16.4449 4.19539 15.8764 4.048L15.5 5.5ZM17 14L15.5228 14.2607C15.5951 14.6701 15.834 15.0311 16.1825 15.2577L17 14ZM27.3113 21.9674C28.1217 21.7954 28.6393 20.9991 28.4674 20.1887L25.666 6.98258C25.4941 6.17219 24.6978 5.65459 23.8874 5.82649C23.077 5.99839 22.5594 6.7947 22.7313 7.6051L25.2214 19.3439L13.4826 21.834C12.6722 22.0059 12.1546 22.8022 12.3265 23.6126C12.4984 24.423 13.2947 24.9406 14.1051 24.7687L27.3113 21.9674ZM1.62356 3.452L15.1236 6.952L15.8764 4.048L2.37644 0.548005L1.62356 3.452ZM14.0228 5.76068L15.5228 14.2607L18.4772 13.7393L16.9772 5.23932L14.0228 5.76068ZM16.1825 15.2577L26.1825 21.7577L27.8175 19.2423L17.8175 12.7423L16.1825 15.2577Z" fill="#EB3E48"/>
</svg>
