<svg width="32" height="24" viewBox="0 0 32 24" fill="none" xmlns="http://www.w3.org/2000/svg">
<path id="Vector 5" d="M0.93934 21.4393C0.353553 22.0251 0.353553 22.9749 0.93934 23.5607C1.52513 24.1464 2.47487 24.1464 3.06066 23.5607L0.93934 21.4393ZM12.7895 11.7105L13.4478 10.3627C12.8723 10.0816 12.1817 10.1969 11.7288 10.6499L12.7895 11.7105ZM18.5 14.5L17.8416 15.8478C18.4446 16.1423 19.1698 16.0006 19.6175 15.5006L18.5 14.5ZM31.1907 1.91738C31.1451 1.09021 30.4375 0.456647 29.6104 0.502277L16.1309 1.24587C15.3037 1.2915 14.6701 1.99905 14.7158 2.82622C14.7614 3.65339 15.4689 4.28695 16.2961 4.24132L28.2779 3.58034L28.9389 15.5621C28.9845 16.3893 29.692 17.0229 30.5192 16.9772C31.3464 16.9316 31.9799 16.2241 31.9343 15.3969L31.1907 1.91738ZM3.06066 23.5607L13.8501 12.7712L11.7288 10.6499L0.93934 21.4393L3.06066 23.5607ZM12.1311 13.0583L17.8416 15.8478L19.1584 13.1522L13.4478 10.3627L12.1311 13.0583ZM19.6175 15.5006L30.8105 3.00063L28.5755 0.999372L17.3825 13.4994L19.6175 15.5006Z" fill="#72D86E"/>
</svg>
