<svg width="16" height="17" viewBox="0 0 16 17" fill="none" xmlns="http://www.w3.org/2000/svg">
<g id="eva:email-outline">
<g id="evaEmailOutline0">
<g id="evaEmailOutline1">
<path id="evaEmailOutline2" d="M12.6654 2.76562H3.33203C2.8016 2.76562 2.29289 2.97634 1.91782 3.35141C1.54274 3.72648 1.33203 4.23519 1.33203 4.76562V11.4323C1.33203 11.9627 1.54274 12.4714 1.91782 12.8465C2.29289 13.2216 2.8016 13.4323 3.33203 13.4323H12.6654C13.1958 13.4323 13.7045 13.2216 14.0796 12.8465C14.4546 12.4714 14.6654 11.9627 14.6654 11.4323V4.76562C14.6654 4.23519 14.4546 3.72648 14.0796 3.35141C13.7045 2.97634 13.1958 2.76563 12.6654 2.76562ZM12.2187 4.09896L7.9987 7.26562L3.7787 4.09896H12.2187ZM12.6654 12.099H3.33203C3.15522 12.099 2.98565 12.0287 2.86063 11.9037C2.7356 11.7787 2.66536 11.6091 2.66536 11.4323V4.93229L7.5987 8.63229C7.71409 8.71884 7.85445 8.76562 7.9987 8.76562C8.14294 8.76562 8.2833 8.71884 8.3987 8.63229L13.332 4.93229V11.4323C13.332 11.6091 13.2618 11.7787 13.1368 11.9037C13.0117 12.0287 12.8422 12.099 12.6654 12.099Z" fill="#FE5143"/>
</g>
</g>
</g>
</svg>
