<svg xmlns="http://www.w3.org/2000/svg" width="16" height="17" viewBox="0 0 16 17" fill="none">
    <g clip-path="url(#clip0_303_47116)">
        <path d="M8.0013 11.4323C7.64768 11.4323 7.30854 11.2918 7.05849 11.0418C6.80844 10.7917 6.66797 10.4526 6.66797 10.099C6.66797 9.35896 7.2613 8.76562 8.0013 8.76562C8.35492 8.76562 8.69406 8.9061 8.94411 9.15615C9.19416 9.4062 9.33464 9.74534 9.33464 10.099C9.33464 10.4526 9.19416 10.7917 8.94411 11.0418C8.69406 11.2918 8.35492 11.4323 8.0013 11.4323ZM12.0013 13.4323V6.76562H4.0013V13.4323H12.0013ZM12.0013 5.43229C12.3549 5.43229 12.6941 5.57277 12.9441 5.82282C13.1942 6.07287 13.3346 6.412 13.3346 6.76562V13.4323C13.3346 13.7859 13.1942 14.1251 12.9441 14.3751C12.6941 14.6251 12.3549 14.7656 12.0013 14.7656H4.0013C3.64768 14.7656 3.30854 14.6251 3.05849 14.3751C2.80844 14.1251 2.66797 13.7859 2.66797 13.4323V6.76562C2.66797 6.02563 3.2613 5.43229 4.0013 5.43229H4.66797V4.09896C4.66797 3.2149 5.01916 2.36706 5.64428 1.74194C6.2694 1.11681 7.11725 0.765625 8.0013 0.765625C8.43904 0.765625 8.87249 0.851844 9.27691 1.01936C9.68133 1.18688 10.0488 1.43241 10.3583 1.74194C10.6679 2.05146 10.9134 2.41893 11.0809 2.82335C11.2484 3.22777 11.3346 3.66122 11.3346 4.09896V5.43229H12.0013ZM8.0013 2.09896C7.47087 2.09896 6.96216 2.30967 6.58709 2.68474C6.21202 3.05982 6.0013 3.56853 6.0013 4.09896V5.43229H10.0013V4.09896C10.0013 3.56853 9.79059 3.05982 9.41552 2.68474C9.04044 2.30967 8.53174 2.09896 8.0013 2.09896Z" fill="#FE5143"/>
    </g>
    <defs>
        <clipPath id="clip0_303_47116">
            <rect width="16" height="16" fill="white" transform="translate(0 0.0996094)"/>
        </clipPath>
    </defs>
</svg>