<svg xmlns="http://www.w3.org/2000/svg" xmlns:xlink="http://www.w3.org/1999/xlink" version="1.1" width="240.0001pt" height="240.0001pt" viewBox="0 0 240.0001 240.0001">
<path transform="matrix(1,0,0,-1,0,240.0001)" d="M71.4481 75.3094C68.9709 75.3094 66.8815 75.7035 65.1798 76.4918 63.4782 77.2801 62.1896 78.3561 61.3137 79.7199 60.438 81.0836 60.0001 82.6537 60.0001 84.4305H65.9682C65.9682 83.7298 66.162 83.0792 66.5498 82.4788 66.9376 81.8782 67.532 81.3966 68.3328 81.0337 69.1336 80.6709 70.1719 80.4895 71.4481 80.4895 72.5992 80.4895 73.5627 80.6394 74.3383 80.9399 75.1141 81.2401 75.702 81.6593 76.1026 82.1971 76.5028 82.7351 76.7032 83.3545 76.7032 84.0552 76.7032 84.9311 76.3279 85.6256 75.577 86.1384 74.8264 86.6514 73.6126 86.9828 71.9362 87.133L69.8717 87.3207C67.1443 87.546 64.9672 88.3967 63.3407 89.873 61.7142 91.3496 60.9009 93.3012 60.9009 95.7285 60.9009 97.4803 61.3199 98.9943 62.1584 100.2705 62.9966 101.5466 64.1665 102.5289 65.6677 103.2168 67.1692 103.9051 68.946 104.2492 70.9977 104.2492 73.1497 104.2492 74.9954 103.8801 76.5343 103.1417 78.0732 102.4036 79.2556 101.3652 80.0813 100.0264 80.907 98.6876 81.32 97.1175 81.32 95.3158H75.3143C75.3143 95.9913 75.1516 96.6107 74.8264 97.1736 74.501 97.7369 74.0194 98.1935 73.3813 98.5439 72.7432 98.8943 71.9487 99.0692 70.9977 99.0692 70.0968 99.0692 69.34 98.9192 68.7268 98.6187 68.1137 98.3186 67.657 97.9121 67.3569 97.399 67.0567 96.8859 66.9064 96.3292 66.9064 95.7285 66.9064 94.953 67.1817 94.2772 67.7322 93.7018 68.2826 93.1263 69.1835 92.7884 70.4347 92.6884L72.5369 92.5007C74.5387 92.3255 76.3027 91.8938 77.8292 91.2056 79.3556 90.5176 80.5504 89.5791 81.4139 88.3905 82.277 87.2019 82.7087 85.7568 82.7087 84.0552 82.7087 82.3037 82.2521 80.771 81.3387 79.4571 80.4254 78.1435 79.1303 77.1236 77.4539 76.398 75.7772 75.6723 73.7753 75.3094 71.4481 75.3094ZM84.2102 76.0226 93.2562 103.4235H103.2029L112.5867 76.0226H106.2057L98.6236 99.182 100.5755 98.3937H95.7334L97.7604 99.182 90.366 76.0226ZM91.0791 82.8164 92.956 87.9214H103.6908L105.6053 82.8164ZM116.1527 76.0226V103.4235H122.3084V76.0226ZM121.5575 76.0226V81.4277H133.0435V76.0226ZM137.0971 76.0226V103.4235H143.1028V76.0226ZM142.3522 76.0226V81.1276H154.3258V76.0226ZM142.3522 87.3958V92.5007H153.4626V87.3958ZM142.3522 98.3186V103.4235H154.063V98.3186ZM168.7394 75.3094C166.2619 75.3094 164.1725 75.7035 162.4711 76.4918 160.7695 77.2801 159.4806 78.3561 158.6049 79.7199 157.729 81.0836 157.2911 82.6537 157.2911 84.4305H163.2591C163.2591 83.7298 163.453 83.0792 163.8411 82.4788 164.2289 81.8782 164.8233 81.3966 165.6238 81.0337 166.4246 80.6709 167.4632 80.4895 168.7394 80.4895 169.8905 80.4895 170.8537 80.6394 171.6296 80.9399 172.4051 81.2401 172.9933 81.6593 173.3936 82.1971 173.7941 82.7351 173.9942 83.3545 173.9942 84.0552 173.9942 84.9311 173.6189 85.6256 172.8683 86.1384 172.1174 86.6514 170.9039 86.9828 169.2272 87.133L167.1627 87.3207C164.4352 87.546 162.2582 88.3967 160.6317 89.873 159.0052 91.3496 158.1919 93.3012 158.1919 95.7285 158.1919 97.4803 158.6112 98.9943 159.4494 100.2705 160.2876 101.5466 161.4574 102.5289 162.959 103.2168 164.4605 103.9051 166.2369 104.2492 168.2889 104.2492 170.441 104.2492 172.2864 103.8801 173.8253 103.1417 175.3642 102.4036 176.5466 101.3652 177.3723 100.0264 178.1983 98.6876 178.611 97.1175 178.611 95.3158H172.6055C172.6055 95.9913 172.4428 96.6107 172.1174 97.1736 171.7923 97.7369 171.3104 98.1935 170.6723 98.5439 170.0342 98.8943 169.2397 99.0692 168.2889 99.0692 167.3881 99.0692 166.6312 98.9192 166.0181 98.6187 165.405 98.3186 164.9483 97.9121 164.6481 97.399 164.3477 96.8859 164.1977 96.3292 164.1977 95.7285 164.1977 94.953 164.4729 94.2772 165.0234 93.7018 165.5739 93.1263 166.4748 92.7884 167.726 92.6884L169.8279 92.5007C171.8297 92.3255 173.594 91.8938 175.1204 91.2056 176.6469 90.5176 177.8417 89.5791 178.7049 88.3905 179.5683 87.2019 180 85.7568 180 84.0552 180 82.3037 179.5433 80.771 178.63 79.4571 177.7164 78.1435 176.4215 77.1236 174.7449 76.398 173.0684 75.6723 171.0666 75.3094 168.7394 75.3094" fill="#f0533f"/>
<path transform="matrix(1,0,0,-1,0,240.0001)" d="M152.3597 125.4824C149.747 125.4824 147.4948 125.9853 145.603 126.9913 143.7111 127.9973 142.2624 129.3559 141.2563 131.0678 140.2503 132.7793 139.7472 134.6712 139.7472 136.7433H146.8641C146.8641 135.7223 147.0969 134.8288 147.5623 134.0631 148.0277 133.2975 148.6811 132.6969 149.5219 132.2614 150.3626 131.826 151.3236 131.6083 152.4044 131.6083 153.6058 131.6083 154.6191 131.8558 155.4452 132.3516 156.2709 132.8468 156.909 133.5226 157.3594 134.3784 157.8098 135.2341 158.0352 136.2027 158.0352 137.2839 158.0352 138.3948 157.8172 139.3784 157.3818 140.2342 156.9464 141.09 156.316 141.7731 155.49 142.2836 154.6642 142.7941 153.6659 143.0493 152.4946 143.0493 151.4137 143.0493 150.4378 142.8242 149.567 142.3738 148.6959 141.9233 148.0504 141.3527 147.63 140.6619H140.6931L142.3599 159.2201H162.3141V152.9138H145.2878L148.1255 154.8057 147.1346 144.1304 145.4227 144.5808C146.3238 145.662 147.4123 146.5702 148.6885 147.306 149.9647 148.0416 151.6388 148.4096 153.7109 148.4096 156.1133 148.4096 158.1627 147.9214 159.8593 146.9455 161.5558 145.9695 162.8623 144.6633 163.7782 143.0269 164.694 141.3901 165.1518 139.566 165.1518 137.554V136.9684C165.1518 134.9563 164.6563 133.0795 163.6654 131.3379 162.6746 129.5963 161.2256 128.1849 159.3187 127.1038 157.4118 126.023 155.0923 125.4824 152.3597 125.4824" fill="#333739"/>
<path transform="matrix(1,0,0,-1,0,240.0001)" d="M87.2796 125.4824C84.727 125.4824 82.5123 125.9552 80.6355 126.9011 78.7586 127.8471 77.3249 129.1309 76.3339 130.7523 75.3429 132.374 74.8474 134.2057 74.8474 136.2478H81.9643C81.9643 134.8665 82.4298 133.7479 83.3607 132.8919 84.2916 132.0361 85.5978 131.6083 87.2796 131.6083 88.3905 131.6083 89.3364 131.8184 90.1174 132.2388 90.898 132.6591 91.4987 133.2374 91.9191 133.973 92.3394 134.7086 92.5495 135.542 92.5495 136.4729 92.5495 137.9143 92.0917 139.1006 91.1758 140.0315 90.2599 140.9624 88.9611 141.4278 87.2796 141.4278 86.3785 141.4278 85.5904 141.2926 84.9146 141.0225 84.2391 140.7521 83.6609 140.4218 83.1804 140.0315L79.8471 145.662 89.8019 152.1482 89.3965 152.9138H76.1987V159.2201H98.3602V152.3733L86.8742 145.0763 83.2706 146.0673C83.8712 146.2473 84.5093 146.3902 85.1851 146.4951 85.8606 146.6002 86.5888 146.6527 87.3694 146.6527 89.922 146.6527 92.1141 146.2323 93.9458 145.3915 95.7776 144.5508 97.1966 143.3721 98.2026 141.8556 99.2086 140.3393 99.7115 138.5751 99.7115 136.563V136.0225C99.7115 134.0107 99.2086 132.2087 98.2026 130.6174 97.1966 129.0257 95.7702 127.7719 93.9234 126.8561 92.0767 125.9402 89.862 125.4824 87.2796 125.4824" fill="#333739"/>
<path transform="matrix(1,0,0,-1,0,240.0001)" d="M121.6449 120.9498C121.3611 121.7608 121.5958 155.7672 121.5604 162.3385 121.5414 165.8792 124.0019 164.5926 124.2935 163.7654 124.611 162.8643 124.3621 128.9387 124.4001 122.3028 124.4066 121.1876 124.4027 120.4075 123.5426 120.1127 122.6183 119.7961 121.8827 120.2698 121.6449 120.9498" fill="#333739" fill-rule="evenodd"/>
<path transform="matrix(1,0,0,-1,0,240.0001)" d="M118.4391 128.4746C118.2603 127.3054 116.7304 126.9482 115.9943 127.7702 115.3976 128.4369 115.6195 130.4487 115.6195 131.4845 115.6195 134.5292 115.4673 155.0115 115.6513 156.1538 115.854 157.4113 117.3742 157.8135 118.1384 156.8517 118.7138 156.1269 118.4621 154.1781 118.4621 153.1551 118.4621 150.1169 118.6109 129.5974 118.4391 128.4746" fill="#333739" fill-rule="evenodd"/>
<path transform="matrix(1,0,0,-1,0,240.0001)" d="M130.2999 130.1298C130.1284 129.2409 128.9375 128.5571 127.9823 129.3746 127.2421 130.0082 127.4984 131.5009 127.4987 132.5378 127.4992 136.1475 127.2821 153.5709 127.5678 154.6197 127.8224 155.5554 129.02 156.0036 129.8418 155.3182 130.5275 154.7464 130.3424 153.3725 130.3421 152.2522 130.3413 149.5553 130.487 131.1001 130.2999 130.1298" fill="#333739" fill-rule="evenodd"/>
<path transform="matrix(1,0,0,-1,0,240.0001)" d="M133.545 135.5477C133.4217 135.8408 133.3315 148.3894 133.5044 149.0012 133.8591 150.2586 135.7257 150.2362 136.1514 149.1352 136.3317 148.6689 136.3864 136.2436 136.1801 135.625 135.8042 134.4988 134.0535 134.3392 133.545 135.5477" fill="#333739" fill-rule="evenodd"/>
<path transform="matrix(1,0,0,-1,0,240.0001)" d="M109.768 135.8484C109.6597 136.173 109.582 148.1783 109.7765 148.8022 110.1628 150.042 111.964 150.1282 112.4161 148.8702 112.5595 148.4714 112.6386 136.3918 112.4133 135.7671 111.981 134.5689 110.1441 134.7248 109.768 135.8484" fill="#333739" fill-rule="evenodd"/>
<path transform="matrix(1,0,0,-1,0,240.0001)" d="M105.5846 146.749C107.1326 146.2904 106.5815 143.3923 106.5815 141.8683 106.5815 140.7283 107.0989 137.2385 104.7583 137.9095 103.3325 138.3182 103.7424 140.7696 103.7424 142.7712 103.7424 143.879 103.2429 147.4427 105.5846 146.749" fill="#333739" fill-rule="evenodd"/>
</svg>
