<svg xmlns="http://www.w3.org/2000/svg" width="24" height="24" viewBox="0 0 29 29" fill="none">
    <g clip-path="url(#clip0_671_32471)">
        <path d="M12.5741 6.86929L12.3531 6.95988C11.7448 7.23257 11.2145 7.65327 10.8106 8.18357C10.4067 8.71387 10.142 9.33687 10.0408 9.99574C9.63437 12.6734 10.6104 15.7255 12.9182 19.1626C15.2218 22.5935 17.6731 24.6514 20.2995 25.291C20.9904 25.4582 21.7134 25.4379 22.3938 25.2323C23.0743 25.0267 23.6875 24.6431 24.1701 24.1213L24.7741 23.4682C25.2529 22.9552 25.5286 22.2854 25.5497 21.584C25.5708 20.8826 25.336 20.1975 24.8889 19.6566L23.7115 18.2393C23.3233 17.7752 22.7994 17.4444 22.2136 17.2934C21.6277 17.1423 21.0092 17.1786 20.445 17.3972L18.6492 18.0862L18.6059 18.0972L18.5101 18.0459C18.4459 18.0095 18.3517 17.9499 18.2324 17.853C17.8912 17.5762 17.4814 17.0924 17.0216 16.4075C16.3986 15.4797 16.0897 14.7856 16.0747 14.3891C16.0711 14.3192 16.0975 14.2509 16.1456 14.1988L17.4002 12.865C17.8163 12.4252 18.0841 11.8659 18.1658 11.2659C18.2475 10.6659 18.139 10.0554 17.8555 9.52033L16.9857 7.88571C16.653 7.26603 16.1058 6.7889 15.4466 6.5437C14.7874 6.2985 14.0614 6.30206 13.4047 6.55371L12.5741 6.86929ZM14.2382 18.2763C12.1295 15.1355 11.269 12.4467 11.6083 10.2207C11.728 9.43022 12.2383 8.75333 12.9586 8.41606L13.1285 8.34353L13.9579 8.02879C14.2565 7.91398 14.5867 7.91204 14.8866 8.02334C15.1865 8.13464 15.4355 8.35153 15.5869 8.63333L16.4568 10.268C16.5855 10.5112 16.6346 10.7887 16.5973 11.0614C16.56 11.3341 16.4381 11.5882 16.2488 11.788L14.9951 13.123C14.8267 13.3018 14.6956 13.5124 14.6093 13.7425C14.5231 13.9726 14.4835 14.2175 14.4928 14.463C14.5223 15.22 14.9335 16.1419 15.7052 17.2913C16.8792 19.0398 17.9149 19.8801 19.0128 19.6181L19.1575 19.5752L21.0052 18.8694C21.2618 18.7697 21.5431 18.7531 21.8096 18.8218C22.0761 18.8905 22.3144 19.041 22.4909 19.2522L23.6675 20.6682C23.8707 20.9142 23.9775 21.2258 23.9679 21.5447C23.9583 21.8637 23.833 22.1683 23.6153 22.4016L23.0113 23.0547C22.7217 23.3677 22.3537 23.5977 21.9454 23.721C21.5371 23.8442 21.1033 23.8562 20.6889 23.7558C18.5005 23.2251 16.3437 21.412 14.2382 18.2763Z" fill="#3F434A"/>
    </g>
    <defs>
        <clipPath id="clip0_671_32471">
            <rect width="24" height="24" fill="white" transform="translate(13.3789 33.3037) rotate(-123.878)"/>
        </clipPath>
    </defs>
</svg>